<?xml version="1.0" encoding="utf-8"?>
<!-- Generator: Adobe Illustrator 16.0.0, SVG Export Plug-In . SVG Version: 6.00 Build 0)  -->
<!DOCTYPE svg PUBLIC "-//W3C//DTD SVG 1.1//EN" "http://www.w3.org/Graphics/SVG/1.1/DTD/svg11.dtd">
<svg version="1.1" id="Calque_1" xmlns="http://www.w3.org/2000/svg" xmlns:xlink="http://www.w3.org/1999/xlink" x="0px" y="0px"
	 width="1700.789px" height="298.303px" viewBox="0 64.374 1700.789 298.303" enable-background="new 0 64.374 1700.789 298.303"
	 xml:space="preserve">
<g>
	<path fill="#ED1C24" d="M1554.92,64.868c-48.004,0-89.813,22.454-116.913,57.296c-27.1-34.842-69.684-57.296-116.914-57.296
		c-48.004,0-89.813,22.454-116.913,57.296c-27.1-34.842-69.684-57.296-116.911-57.296c-48.007,0-89.815,22.454-116.913,57.296
		c-27.098-34.842-69.683-57.296-116.912-57.296c-48.004,0-89.814,22.454-116.913,57.296
		c-28.648-34.842-71.232-57.296-119.236-57.296s-89.815,22.454-116.913,57.296c-27.101-34.842-69.684-57.296-117.689-57.296
		c-48.003,0-89.813,22.454-116.911,57.296c-27.1-34.842-69.684-57.296-116.914-57.296c-82.075,0-148.66,66.586-148.66,148.659
		c0,82.071,66.585,148.657,148.658,148.657c48.003,0,89.814-22.453,116.914-57.295c27.099,34.842,69.682,57.295,116.911,57.295
		c48.005,0,89.815-22.453,116.914-57.295c27.1,34.842,69.684,57.295,116.913,57.295c48.005,0,89.814-22.453,116.913-57.295
		c27.1,34.842,69.683,57.295,116.913,57.295c48.003,0,89.815-22.453,116.913-57.295c27.1,34.842,69.684,57.295,116.913,57.295
		c48.005,0,89.813-22.453,116.913-57.295c27.1,34.842,69.684,57.295,116.912,57.295c48.006,0,89.815-22.453,116.913-57.295
		c27.098,34.842,69.684,57.295,116.913,57.295c82.072,0,148.657-66.586,148.657-148.657
		C1703.577,131.454,1636.991,64.868,1554.92,64.868"/>
	<path fill="#FFFFFF" d="M1321.093,290.951c-42.586,0-77.428-34.842-77.428-77.425c0-42.585,34.842-77.427,77.428-77.427
		c42.584,0,77.426,34.842,77.426,77.427C1397.745,256.109,1363.677,290.951,1321.093,290.951 M1321.093,170.168
		c-24.001,0-43.358,19.356-43.358,43.358c0,24.002,19.357,43.358,43.358,43.358c24.004,0,43.359-19.355,43.359-43.358
		C1364.452,189.525,1345.097,170.168,1321.093,170.168"/>
	<path fill="#FFFFFF" d="M1554.92,290.951c-42.584,0-77.426-34.842-77.426-77.425c0-42.585,34.842-77.427,77.426-77.427
		s77.426,34.842,77.426,77.427C1632.346,256.109,1597.504,290.951,1554.92,290.951 M1554.92,170.168
		c-24.003,0-43.358,19.356-43.358,43.358c0,24.002,19.355,43.358,43.358,43.358c24.001,0,43.358-19.355,43.358-43.358
		C1598.279,189.525,1578.921,170.168,1554.92,170.168"/>
	<path fill="#FFFFFF" d="M382.691,290.951c-42.584,0-77.426-34.842-77.426-77.425c0-42.585,34.842-77.427,77.426-77.427
		c42.586,0,77.427,34.842,77.427,77.427C460.117,256.109,425.277,290.951,382.691,290.951 M382.691,170.168
		c-24.001,0-43.357,19.356-43.357,43.358c0,24.002,19.356,43.358,43.357,43.358c24.002,0,43.359-19.355,43.359-43.358
		C426.825,189.525,406.693,170.168,382.691,170.168"/>
	<path fill="#FFFFFF" d="M148.866,290.951c-42.584,0-77.426-34.842-77.426-77.425c0-42.585,34.842-77.427,77.426-77.427
		c42.585,0,77.427,34.842,77.427,77.427C225.517,256.109,191.45,290.951,148.866,290.951 M148.866,170.168
		c-24.002,0-43.358,19.356-43.358,43.358c0,24.002,19.356,43.358,43.358,43.358c24.002,0,43.359-19.355,43.359-43.358
		C192.225,189.525,172.867,170.168,148.866,170.168"/>
	<path fill="#FFFFFF" d="M853.442,290.177c-2.324,0-4.646,0-6.968,0h-1.548h-2.323c-39.488-4.646-68.909-37.164-68.909-76.651
		c0-42.585,34.842-77.427,77.426-77.427c42.583,0,77.425,34.842,77.425,77.427c0,5.418-0.775,9.29-1.548,14.709H810.082l2.323,5.42
		c6.194,11.615,17.034,20.131,30.195,22.453c3.871,0.775,7.742,0.775,11.614,0.775h2.322c11.613,0,21.68-3.871,29.422-10.842
		l0.774-0.771l31.745,17.033l-1.549,1.549c-13.938,17.033-34.069,26.324-60.395,26.324
		C854.99,290.177,854.216,290.177,853.442,290.177 M851.117,169.393c-17.807,0-33.292,10.84-40.26,27.099v0.775h80.522v-0.775
		C884.41,180.233,868.926,169.393,851.117,169.393"/>
	<path fill="#FFFFFF" d="M546.059,286.306v-73.553v-4.646c2.324-41.037,36.391-72.78,77.427-72.78
		c29.422,0,55.747,16.258,68.91,42.584L662.2,193.397c-6.968-14.71-22.454-24.777-39.487-24.777
		c-24.002,0-43.359,19.356-43.359,43.358v73.555H546.06L546.059,286.306L546.059,286.306z"/>
	<path fill="#FFFFFF" d="M1129.851,71.063v78.201l-3.097-2.323c-12.388-7.742-26.325-11.613-40.26-11.613
		c-42.586,0-77.426,34.841-77.426,77.426c0,42.583,34.838,77.424,77.426,77.424c42.584,0,77.426-34.842,77.426-77.424V86.548
		C1153.079,80.353,1141.466,74.935,1129.851,71.063 M1086.494,256.885c-24.004,0-43.359-19.355-43.359-43.358
		c0-24.002,19.355-43.358,43.359-43.358c24.001,0,43.358,19.356,43.358,43.358C1129.851,237.527,1110.495,256.885,1086.494,256.885"
		/>
</g>
</svg>
